inDegrees=yes
name=ik_S52_A06_T05
DataType=double
version=3
OpenSimVersion=4.3-2021-08-27-4bc7ad9
endheader
time	pelvis_tilt	pelvis_list	pelvis_rotation	pelvis_tx	pelvis_ty	pelvis_tz	hip_flexion_r	hip_adduction_r	hip_rotation_r	knee_angle_r	knee_angle_r_beta	ankle_angle_r	subtalar_angle_r	mtp_angle_r	hip_flexion_l	hip_adduction_l	hip_rotation_l	knee_angle_l	knee_angle_l_beta	ankle_angle_l	subtalar_angle_l	mtp_angle_l	lumbar_extension	lumbar_bending	lumbar_rotation	arm_flex_r	arm_add_r	arm_rot_r	elbow_flex_r	pro_sup_r	wrist_flex_r	wrist_dev_r	arm_flex_l	arm_add_l	arm_rot_l	elbow_flex_l	pro_sup_l	wrist_flex_l	wrist_dev_l
16.39999999999974	-4.23128485719332	-0.5380198162490551	13.55123646272968	0	0.9399999999999999	0	44.20031433145606	-10.32095670416938	-10.37853170379085	54.35361689597845	0.9486495752024442	0	0	0	44.20031433145606	-10.32095670416938	-10.37853170379085	54.35361689597845	0.9486495752024442	0	0	0	-2.833537779267095	-0.6737212166561194	3.942981502764726	37.35802605142813	-7.776683312265806	-3.035889611767691	29.23219275829776	147.2238648273438	0	0	75.39382821908988	9.318055443305841	4.625943280411234	20.05536252320857	99.29212283252038	0	0
16.41999999999974	-4.198963933400738	-0.5321326660538429	13.58881960368422	0	0.9399999999999999	0	44.20046086782268	-10.32075213935386	-10.37837673682228	54.35369654271626	0.9486509653002574	0	0	0	44.20046086782268	-10.32075213935386	-10.37837673682228	54.35369654271626	0.9486509653002574	0	0	0	-2.801117149642553	-0.6742807450995881	3.919368092037141	37.29369712330604	-7.77238585590752	-3.033672790731044	29.22354536430826	147.2151177018575	0	0	75.29567269362937	9.156260899159575	4.430612549812044	20.09492740656588	99.44050370924946	0	0
16.43999999999974	-4.18303699987565	-0.5283284858017475	13.60907739368024	0	0.9399999999999999	0	44.20083252908231	-10.3205721325338	-10.37813837487034	54.35392618930461	0.9486549733893401	0	0	0	44.20083252908231	-10.3205721325338	-10.37813837487034	54.35392618930461	0.9486549733893401	0	0	0	-2.785285857764769	-0.67388659203495	3.917318847905163	37.24660013811577	-7.781195092420294	-3.037105180913321	29.23020745934401	147.2068706804304	0	0	75.27035418107818	9.143897322773709	4.535943490283104	19.98165129947929	99.32608751156006	0	0
16.45999999999974	-4.193259642213002	-0.5288125832834877	13.6100904660691	0	0.9399999999999999	0	44.20183332171689	-10.31906974884856	-10.37703593905209	54.35446116362645	0.9486643104526697	0	0	0	44.20183332171689	-10.31906974884856	-10.37703593905209	54.35446116362645	0.9486643104526697	0	0	0	-2.796509211793706	-0.6712550767844799	3.919963910519239	37.25305146692799	-7.788679843578623	-3.036434595210955	29.29355698168969	147.132760966527	0	0	75.25788594845774	9.138365615826478	4.555744578607801	20.06957503369107	99.29744318586899	0	0
16.47999999999974	-4.189254072044692	-0.528456145693739	13.60878220139248	0	0.9399999999999999	0	44.20198540241616	-10.31876223346317	-10.3768376290486	54.35453855912967	0.9486656612590273	0	0	0	44.20198540241616	-10.31876223346317	-10.3768376290486	54.35453855912967	0.9486656612590273	0	0	0	-2.792682925780313	-0.6718194779733423	3.921619105177056	37.25194616713659	-7.786560339815268	-3.05663849824032	29.29016139557926	147.1321725310304	0	0	75.26124363236703	9.138431775171446	4.559943415476021	20.07840707954301	99.2823135286891	0	0
16.49999999999974	-4.181491427792707	-0.5480354765364007	13.63741823639764	0	0.9399999999999999	0	44.20203369130643	-10.31869633547667	-10.37678728585257	54.35456526797046	0.9486661274162386	0	0	0	44.20203369130643	-10.31869633547667	-10.37678728585257	54.35456526797046	0.9486661274162386	0	0	0	-2.789783920722671	-0.6927203026422923	3.922665614704066	37.26398262825798	-7.772023037436687	-3.096653382521501	29.26866527178544	147.1535375989352	0	0	75.25076724023997	9.116684228178329	4.479176364823068	20.06852176329527	99.3019277621768	0	0
16.51999999999974	-4.176415711091095	-0.5461120205907888	13.64942481320319	0	0.9399999999999999	0	44.2026773365637	-10.31785714897316	-10.37613541620363	54.35491910515977	0.948672303040208	0	0	0	44.2026773365637	-10.31785714897316	-10.37613541620363	54.35491910515977	0.948672303040208	0	0	0	-2.785212169309564	-0.6913240809413963	3.918868194210641	37.24690519644304	-7.786822975746528	-3.0493047647406	29.2898113464962	147.1331136029447	0	0	75.24396574670702	9.112845000770196	4.501447332521257	20.10336261494729	99.32579083708603	0	0
16.53999999999974	-4.140198621426045	-0.5268197136104535	13.67791507167236	0	0.9399999999999999	0	44.20288753864511	-10.31756556546651	-10.37591381015678	54.35503340711727	0.9486742979857077	0	0	0	44.20288753864511	-10.31756556546651	-10.37591381015678	54.35503340711727	0.9486742979857077	0	0	0	-2.745979273700675	-0.6794563733943261	3.888976582355745	37.18579156113739	-7.770453452372071	-3.045056610181299	29.21841391091847	147.2262401585544	0	0	75.1488688258365	9.015222944072379	4.261747334727971	20.02514568816499	99.51744166208856	0	0
16.55999999999974	-4.15154564707884	-0.5220475204652503	13.66800177206988	0	0.9399999999999999	0	44.20316377811599	-10.31711655006924	-10.37559742858535	54.35517990802956	0.9486768549089843	0	0	0	44.20316377811599	-10.31711655006924	-10.37559742858535	54.35517990802956	0.9486768549089843	0	0	0	-2.756223097578661	-0.6718565606476226	3.888302238721896	37.19251502302898	-7.779983377585434	-3.047375878215888	29.22400825127799	147.2316115578794	0	0	75.16377326435341	8.995131811043796	4.322685009891011	20.0356585713655	99.50450628576866	0	0
